<?xml version="1.0" standalone="no"?>
<!DOCTYPE svg PUBLIC "-//W3C//DTD SVG 20010904//EN"
 "http://www.w3.org/TR/2001/REC-SVG-20010904/DTD/svg10.dtd">
<svg version="1.0" xmlns="http://www.w3.org/2000/svg"
 width="235.000000pt" height="235.000000pt" viewBox="0 0 235.000000 235.000000"
 preserveAspectRatio="xMidYMid meet">
<metadata>
Created by potrace 1.11, written by Peter Selinger 2001-2013
</metadata>
<g transform="translate(0.000000,235.000000) scale(0.100000,-0.100000)"
fill="#000000" stroke="none">
<path d="M1108 2218 c-103 -162 -508 -788 -539 -835 -16 -23 -29 -44 -29 -48
0 -3 -5 -11 -11 -18 -14 -16 -497 -768 -522 -812 -3 -7 92 -10 286 -10 l292 1
80 -62 c44 -35 174 -137 289 -229 115 -91 213 -168 217 -170 4 -3 36 19 72 47
35 29 80 65 98 79 101 79 195 153 199 158 3 4 54 45 114 91 l109 85 286 1
c157 1 289 2 293 3 4 0 -22 47 -59 104 -36 56 -91 140 -121 187 -30 47 -75
115 -99 153 -23 37 -63 97 -86 135 -24 37 -69 105 -99 152 -30 47 -92 144
-138 215 -46 72 -121 187 -167 257 -46 71 -83 130 -83 133 0 3 -5 11 -11 18
-10 11 -67 99 -222 342 -39 61 -74 114 -77 118 -4 4 -36 -38 -72 -95z"/>
</g>
</svg>
